<svg width="512" height="512" viewBox="0 0 512 512" fill="none" xmlns="http://www.w3.org/2000/svg">
<g clip-path="url(#clip0_2020_8533)">
<path fill-rule="evenodd" clip-rule="evenodd" d="M142.994 147.065C141.353 147.064 139.749 146.576 138.385 145.663C137.021 144.75 135.958 143.453 135.331 141.936C134.704 140.42 134.54 138.751 134.861 137.141C135.182 135.532 135.973 134.054 137.134 132.893C138.295 131.733 139.774 130.944 141.384 130.624C142.994 130.304 144.663 130.469 146.179 131.097C147.695 131.726 148.991 132.79 149.903 134.154C150.814 135.519 151.301 137.124 151.301 138.765C151.298 140.967 150.422 143.077 148.864 144.633C147.307 146.189 145.196 147.064 142.994 147.065ZM193.924 264.8C193.205 268.442 192.842 272.145 192.841 275.858V278.13H93.1459V275.858C93.1438 272.146 92.7821 268.442 92.0659 264.8H193.924ZM163.859 328.423H122.129C114.909 328.414 107.953 325.714 102.617 320.851C97.2813 315.988 93.9501 309.311 93.2739 302.123H192.713C192.037 309.311 188.706 315.988 183.371 320.851C178.035 325.715 171.078 328.414 163.859 328.423ZM224.085 223.29C234.76 212.647 243.232 200.004 249.016 186.083C254.801 172.163 257.784 157.239 257.795 142.165C257.806 127.091 254.846 112.162 249.082 98.233C243.319 84.3041 234.866 71.6481 224.207 60.989C213.548 50.3299 200.892 41.8769 186.963 36.1135C173.034 30.3501 158.105 27.3893 143.031 27.4006C127.957 27.412 113.033 30.3951 99.1125 36.1795C85.1922 41.9638 72.549 50.4358 61.9059 61.1109C51.2566 71.7595 42.8091 84.4014 37.0457 98.3148C31.2823 112.228 28.3159 127.141 28.3159 142.2C28.3159 157.26 31.2823 172.173 37.0457 186.086C42.8091 199.999 51.2566 212.641 61.9059 223.29C65.1055 226.494 68.4914 229.507 72.0459 232.313C75.2365 234.833 78.1527 237.682 80.7459 240.813C80.8799 240.813 81.0139 240.791 81.1509 240.791H130.998V168.74C124.027 165.951 118.245 160.821 114.646 154.232C111.046 147.643 109.854 140.006 111.274 132.634C112.694 125.261 116.637 118.614 122.427 113.833C128.216 109.052 135.49 106.437 142.998 106.437C150.506 106.437 157.78 109.052 163.569 113.833C169.358 118.614 173.302 125.261 174.722 132.634C176.142 140.006 174.95 147.643 171.35 154.232C167.751 160.821 161.969 165.951 154.998 168.74V240.792H204.849C204.985 240.792 205.117 240.814 205.249 240.814C207.842 237.682 210.758 234.833 213.949 232.314C217.503 229.507 220.889 226.494 224.091 223.291L224.085 223.29ZM466.174 390.27C463.986 390.674 461.953 391.677 460.302 393.168C458.65 394.659 457.445 396.579 456.82 398.714C455.111 404.571 452.769 410.224 449.835 415.573C448.763 417.524 448.256 419.735 448.369 421.958C448.481 424.181 449.21 426.328 450.474 428.161L460.587 442.82L443.61 459.8L428.95 449.684C427.117 448.422 424.969 447.694 422.747 447.581C420.524 447.467 418.314 447.973 416.362 449.041C411.015 451.981 405.363 454.327 399.505 456.035C397.369 456.656 395.448 457.859 393.957 459.509C392.466 461.159 391.463 463.191 391.06 465.379L387.846 482.889H363.839L360.624 465.379C360.222 463.192 359.22 461.159 357.729 459.509C356.238 457.859 354.317 456.656 352.182 456.035C346.326 454.32 340.674 451.975 335.324 449.041C333.371 447.973 331.16 447.467 328.937 447.581C326.714 447.694 324.567 448.422 322.733 449.684L308.075 459.8L291.1 442.82L301.213 428.161C302.477 426.329 303.206 424.181 303.32 421.958C303.433 419.735 302.926 417.524 301.855 415.573C298.92 410.224 296.577 404.571 294.867 398.714C294.242 396.579 293.036 394.659 291.385 393.168C289.734 391.677 287.701 390.674 285.513 390.27L268 387.062V363.052L285.511 359.83C287.699 359.429 289.732 358.428 291.383 356.938C293.035 355.448 294.24 353.528 294.863 351.393C296.573 345.536 298.917 339.883 301.853 334.534C302.924 332.581 303.432 330.37 303.318 328.145C303.205 325.921 302.475 323.772 301.211 321.939L291.1 307.28L308.078 290.314L322.736 300.422C324.568 301.686 326.716 302.416 328.939 302.529C331.162 302.643 333.373 302.136 335.325 301.065C340.675 298.131 346.327 295.786 352.183 294.071C354.319 293.448 356.24 292.244 357.731 290.593C359.222 288.941 360.225 286.908 360.627 284.72L363.842 267.21H387.849L391.063 284.72C391.465 286.908 392.468 288.942 393.959 290.593C395.451 292.244 397.372 293.448 399.508 294.071C405.363 295.786 411.015 298.131 416.365 301.065C418.317 302.135 420.527 302.641 422.75 302.528C424.973 302.414 427.12 301.685 428.953 300.422L443.613 290.314L460.59 307.28L450.477 321.939C449.214 323.773 448.485 325.922 448.372 328.146C448.259 330.37 448.767 332.582 449.838 334.534C452.773 339.883 455.115 345.536 456.823 351.393C457.447 353.528 458.652 355.448 460.304 356.937C461.956 358.427 463.989 359.429 466.177 359.83L483.687 363.052V387.062L466.177 390.27H466.174ZM375.843 316.439C364.251 316.438 352.919 319.875 343.28 326.315C333.641 332.755 326.128 341.908 321.692 352.617C317.255 363.327 316.094 375.112 318.354 386.481C320.615 397.851 326.197 408.294 334.393 416.492C342.59 424.689 353.033 430.272 364.402 432.534C375.771 434.796 387.556 433.636 398.266 429.201C408.976 424.765 418.13 417.254 424.571 407.616C431.012 397.978 434.45 386.646 434.451 375.054C434.433 359.515 428.253 344.617 417.266 333.629C406.279 322.64 391.382 316.458 375.843 316.439ZM375.843 409.665C382.689 409.666 389.381 407.636 395.073 403.834C400.766 400.031 405.203 394.625 407.823 388.301C410.443 381.976 411.129 375.017 409.794 368.302C408.459 361.588 405.163 355.42 400.322 350.58C395.482 345.739 389.314 342.442 382.6 341.106C375.886 339.77 368.926 340.456 362.602 343.075C356.277 345.695 350.871 350.132 347.068 355.824C343.265 361.516 341.235 368.208 341.235 375.054C341.245 384.23 344.895 393.026 351.383 399.515C357.871 406.003 366.667 409.654 375.843 409.665ZM46.3999 400.443V348.193C46.3999 345.01 47.6642 341.958 49.9146 339.708C52.165 337.457 55.2173 336.193 58.3999 336.193C61.5825 336.193 64.6347 337.457 66.8852 339.708C69.1356 341.958 70.3999 345.01 70.3999 348.193V400.443C70.4123 411.146 74.6698 421.407 82.2381 428.975C89.8065 436.543 100.068 440.8 110.771 440.812H198.471L173.895 417.481C171.586 415.29 170.242 412.272 170.159 409.091C170.075 405.909 171.259 402.825 173.45 400.516C175.641 398.207 178.659 396.863 181.84 396.78C185.022 396.696 188.106 397.88 190.415 400.071L238.476 445.692C239.657 446.812 240.598 448.161 241.241 449.657C241.883 451.153 242.215 452.764 242.215 454.392C242.215 456.02 241.883 457.631 241.241 459.127C240.598 460.622 239.657 461.972 238.476 463.092L190.414 508.7C189.274 509.796 187.929 510.657 186.455 511.231C184.981 511.806 183.408 512.083 181.827 512.047C180.246 512.012 178.687 511.663 177.241 511.023C175.795 510.383 174.49 509.462 173.4 508.316C172.311 507.169 171.46 505.818 170.895 504.34C170.33 502.863 170.062 501.289 170.108 499.708C170.154 498.127 170.512 496.57 171.162 495.128C171.812 493.686 172.74 492.387 173.894 491.305L201.802 464.805H110.771C93.706 464.786 77.3452 457.999 65.2777 445.933C53.2101 433.868 46.4211 417.508 46.3999 400.443ZM342.153 20.7049L315.911 45.6049H401.229C418.295 45.6255 434.656 52.4144 446.724 64.4823C458.791 76.5502 465.579 92.9117 465.599 109.978V227.758C465.599 230.94 464.335 233.993 462.084 236.243C459.834 238.494 456.781 239.758 453.599 239.758C450.416 239.758 447.364 238.494 445.114 236.243C442.863 233.993 441.599 230.94 441.599 227.758V109.982C441.587 99.2787 437.329 89.0173 429.761 81.4491C422.193 73.8809 411.931 69.6238 401.228 69.6119H315.911L342.153 94.5229C344.442 96.7182 345.769 99.7304 345.843 102.901C345.918 106.072 344.734 109.143 342.551 111.444C340.368 113.744 337.363 115.087 334.193 115.178C331.023 115.27 327.945 114.103 325.633 111.932L277.571 66.3109C276.389 65.191 275.448 63.842 274.804 62.3462C274.161 60.8504 273.829 59.2392 273.829 57.6109C273.829 55.9826 274.161 54.3714 274.804 52.8756C275.448 51.3798 276.389 50.0308 277.571 48.9109L325.633 3.29989C326.767 2.17079 328.115 1.2798 329.598 0.679332C331.081 0.078868 332.669 -0.218943 334.269 -0.196582C335.869 -0.174221 337.448 0.16786 338.914 0.809539C340.379 1.45122 341.702 2.37953 342.804 3.53988C343.905 4.70023 344.764 6.06918 345.329 7.56619C345.893 9.0632 346.153 10.6581 346.092 12.2569C346.032 13.8558 345.652 15.4264 344.975 16.8764C344.299 18.3263 343.339 19.6263 342.153 20.6999V20.7049Z" fill="black"/>
</g>
<defs>
<clipPath id="clip0_2020_8533">
<rect width="512" height="512" fill="white"/>
</clipPath>
</defs>
</svg>
