<svg width="50" height="50" viewBox="0 0 50 50" fill="none" xmlns="http://www.w3.org/2000/svg">
<g clip-path="url(#clip0_4030_2874)">
<path d="M20.1837 25.0106L38.8886 6.30488C39.4036 5.79106 39.687 5.10406 39.687 4.37154C39.687 3.63862 39.4036 2.95203 38.8886 2.4374L37.2496 0.799187C36.7354 0.28374 36.048 0 35.3154 0C34.5829 0 33.8963 0.28374 33.3817 0.799187L11.1106 23.0699C10.5939 23.5862 10.311 24.276 10.313 25.0093C10.311 25.7459 10.5935 26.435 11.1106 26.9516L33.361 49.2008C33.8756 49.7163 34.5622 50 35.2951 50C36.0276 50 36.7142 49.7163 37.2293 49.2008L38.8679 47.5626C39.9341 46.4963 39.9341 44.7606 38.8679 43.6947L20.1837 25.0106Z" fill="black"/>
</g>
<defs>
<clipPath id="clip0_4030_2874">
<rect width="50" height="50" fill="white"/>
</clipPath>
</defs>
</svg>
