<svg width="512" height="512" viewBox="0 0 512 512" fill="none" xmlns="http://www.w3.org/2000/svg">
<path fill-rule="evenodd" clip-rule="evenodd" d="M168.326 179.765C169.666 181.134 170.412 182.976 170.402 184.891C170.392 186.807 169.626 188.641 168.272 189.996C166.917 191.35 165.083 192.116 163.168 192.126C161.252 192.136 159.41 191.39 158.041 190.05L126.621 158.63C125.257 157.266 124.491 155.416 124.491 153.487C124.491 151.559 125.257 149.709 126.621 148.345L158.041 116.925C159.41 115.585 161.252 114.839 163.168 114.849C165.083 114.859 166.917 115.624 168.272 116.979C169.626 118.334 170.392 120.168 170.402 122.083C170.412 123.999 169.666 125.841 168.326 127.21L142.048 153.488L168.326 179.766V179.765ZM235.492 191.131C234.123 192.471 232.281 193.217 230.365 193.207C228.45 193.197 226.616 192.431 225.261 191.077C223.907 189.722 223.141 187.888 223.131 185.972C223.121 184.057 223.867 182.215 225.207 180.846L251.485 154.568L225.207 128.29C223.867 126.921 223.121 125.079 223.131 123.163C223.141 121.248 223.907 119.414 225.261 118.059C226.616 116.704 228.45 115.939 230.365 115.929C232.281 115.919 234.123 116.665 235.492 118.005L266.912 149.425C268.276 150.789 269.042 152.639 269.042 154.567C269.042 156.496 268.276 158.346 266.912 159.71L235.492 191.131ZM190.718 204.667C190.198 206.502 188.977 208.06 187.318 209.002C185.66 209.945 183.697 210.197 181.854 209.705C180.011 209.212 178.435 208.015 177.468 206.37C176.501 204.726 176.219 202.767 176.684 200.917L202.817 103.389C203.314 101.528 204.531 99.9406 206.198 98.9763C207.866 98.012 209.848 97.7496 211.709 98.2469C213.57 98.7442 215.157 99.9604 216.122 101.628C217.086 103.296 217.348 105.278 216.851 107.139L190.718 204.667ZM456.293 233.411C418.12 219.182 355.07 219.182 316.897 233.411C301.344 239.208 291.724 246.377 291.724 253.543C291.724 260.709 301.344 267.878 316.897 273.675C355.071 287.904 418.118 287.904 456.292 273.675C471.845 267.878 481.465 260.709 481.465 253.543C481.465 246.377 471.845 239.208 456.292 233.411H456.293ZM291.725 395.649V431.631C291.725 438.797 301.345 445.966 316.898 451.763C355.073 465.992 418.118 465.992 456.293 451.763C471.846 445.966 481.466 438.797 481.466 431.631V395.649C440.9 424.894 332.291 424.893 291.725 395.649ZM291.725 312.905V276.923C332.29 306.167 440.896 306.168 481.466 276.923V312.905C481.466 320.071 471.846 327.24 456.293 333.037C418.119 347.266 355.071 347.266 316.897 333.037C301.344 327.24 291.724 320.071 291.724 312.905H291.725ZM481.466 336.286V372.268C481.466 379.434 471.846 386.603 456.293 392.4C418.119 406.629 355.071 406.629 316.898 392.4C301.345 386.603 291.725 379.434 291.725 372.268V336.286C332.291 365.53 440.9 365.53 481.466 336.286ZM308.094 314.835L311.801 316.424C313.572 317.177 315.569 317.197 317.354 316.477C319.139 315.758 320.565 314.359 321.318 312.589C322.071 310.818 322.091 308.821 321.372 307.036C320.652 305.251 319.254 303.825 317.483 303.072L313.776 301.483C312.005 300.729 310.008 300.71 308.223 301.429C306.438 302.149 305.012 303.547 304.259 305.318C303.506 307.088 303.486 309.086 304.205 310.871C304.925 312.655 306.323 314.081 308.094 314.835ZM308.094 374.686L311.801 376.275C313.572 377.028 315.569 377.048 317.354 376.328C319.139 375.609 320.565 374.21 321.318 372.44C322.071 370.669 322.091 368.672 321.372 366.887C320.652 365.102 319.254 363.676 317.483 362.923L313.776 361.334C312.005 360.58 310.008 360.561 308.223 361.28C306.438 362 305.012 363.398 304.259 365.169C303.506 366.939 303.486 368.937 304.205 370.722C304.925 372.506 306.323 373.932 308.094 374.686ZM308.094 434.537C306.323 433.783 304.925 432.357 304.205 430.573C303.486 428.788 303.506 426.79 304.259 425.02C305.012 423.249 306.438 421.851 308.223 421.131C310.008 420.412 312.005 420.431 313.776 421.185L317.483 422.774C319.254 423.527 320.652 424.953 321.372 426.738C322.091 428.523 322.071 430.52 321.318 432.291C320.565 434.061 319.139 435.46 317.354 436.179C315.569 436.899 313.572 436.879 311.801 436.126L308.094 434.537ZM277.179 346.184H102.102V364.581H277.177V346.184H277.179ZM121.883 331.637L96.874 331.638C91.77 331.638 87.558 335.85 87.558 340.954V369.811C87.558 374.949 91.735 379.127 96.874 379.127H277.18V431.631C277.18 445.492 290.426 457.36 311.842 465.343C353.446 480.85 419.747 480.85 461.351 465.343C482.766 457.361 496.013 445.492 496.013 431.631V253.542C496.013 239.681 482.767 227.812 461.352 219.83C439.033 211.511 408.573 207.342 377.546 208.341V57.7659C377.546 45.2449 367.327 35.0259 354.805 35.0259H38.73C26.208 35.0259 15.989 45.2449 15.989 57.7659V276.243C15.989 288.765 26.208 298.983 38.73 298.983H161.112C157.652 317.627 141.201 331.637 121.883 331.637ZM236.142 331.638H158.84C167.926 323.212 174.123 311.776 175.84 298.983H219.141C220.858 311.776 227.056 323.212 236.142 331.638ZM233.869 298.983H277.18V331.638H273.1C253.781 331.637 237.328 317.627 233.869 298.983ZM277.18 257.961V284.437H38.73C34.238 284.437 30.535 280.735 30.535 276.243V257.961H277.178H277.18ZM30.537 243.415H279.653C284.423 233.913 295.855 225.789 311.841 219.831C325.745 214.648 343.368 210.892 362.999 209.199V57.7659C362.999 53.2749 359.296 49.5719 354.804 49.5719H38.73C34.238 49.5719 30.535 53.2739 30.535 57.7659V243.415H30.537Z" fill="black" stroke="black" stroke-width="4"/>
</svg>
