<svg width="512" height="512" viewBox="0 0 512 512" fill="none" xmlns="http://www.w3.org/2000/svg">
<g clip-path="url(#clip0_2021_8541)">
<path d="M470.917 336.069C439.571 336.069 408.792 331.167 379.625 321.528C365.333 316.653 347.764 321.125 339.041 330.084L281.472 373.543C214.708 337.904 173.583 296.792 138.431 230.529L180.611 174.46C191.569 163.516 195.5 147.529 190.791 132.529C181.111 103.209 176.193 72.4453 176.193 41.0853C176.195 18.4307 157.764 0 135.111 0H41.084C18.4307 0 0 18.4307 0 41.084C0 300.751 211.251 512 470.917 512C493.571 512 512.001 493.569 512.001 470.916V377.152C512 354.5 493.569 336.069 470.917 336.069Z" fill="black"/>
</g>
<defs>
<clipPath id="clip0_2021_8541">
<rect width="512" height="512" fill="white"/>
</clipPath>
</defs>
</svg>
