<svg width="512" height="512" viewBox="0 0 512 512" fill="none" xmlns="http://www.w3.org/2000/svg">
<g clip-path="url(#clip0_2020_8523)">
<path d="M188.789 263.009C197.09 263.009 203.809 256.28 203.809 247.988C203.809 239.697 197.09 232.968 188.789 232.968H182.531C181.702 230.396 180.661 227.897 179.416 225.498L183.862 221.062C189.73 215.194 189.73 205.681 183.862 199.814C177.995 193.946 168.482 193.946 162.614 199.814L158.178 204.26C155.779 203.015 153.28 201.974 150.708 201.145V194.887C150.708 186.586 143.979 179.867 135.688 179.867C127.396 179.867 120.667 186.586 120.667 194.887V201.145C118.095 201.974 115.596 203.015 113.197 204.26L108.761 199.814C102.893 193.946 93.3807 193.946 87.5128 199.814C81.6449 205.681 81.6449 215.194 87.5128 221.062L91.9587 225.498C90.7145 227.897 89.6728 230.396 88.8446 232.968H82.5861C74.285 232.968 67.5659 239.697 67.5659 247.988C67.5659 256.28 74.285 263.009 82.5861 263.009H88.8446C89.6728 265.581 90.7145 268.08 91.9587 270.479L87.5128 274.915C81.6449 280.783 81.6449 290.295 87.5128 296.163C90.4467 299.097 94.2919 300.559 98.1371 300.559C101.982 300.559 105.827 299.097 108.761 296.163L113.197 291.717C115.596 292.961 118.095 294.003 120.667 294.831V301.09C120.667 309.391 127.396 316.11 135.688 316.11C143.979 316.11 150.708 309.391 150.708 301.09V294.831C153.28 294.003 155.779 292.961 158.178 291.717L162.614 296.163C165.548 299.097 169.393 300.559 173.238 300.559C177.083 300.559 180.928 299.097 183.862 296.163C189.73 290.295 189.73 280.783 183.862 274.915L179.416 270.479C180.661 268.08 181.702 265.581 182.531 263.009H188.789ZM120.667 247.988C120.667 239.697 127.396 232.968 135.688 232.968C143.979 232.968 150.708 239.697 150.708 247.988C150.708 256.28 143.979 263.009 135.688 263.009C127.396 263.009 120.667 256.28 120.667 247.988Z" fill="black"/>
<path d="M377.016 120.319C356.389 120.319 336.191 125.025 317.897 133.877L319.229 124.554C320.41 116.343 314.702 108.733 306.491 107.562C298.27 106.38 290.67 112.088 289.489 120.299L283.47 162.395C282.289 169.865 287.496 177.506 294.886 179.138C296.288 179.318 339.195 190.013 339.386 189.232C357.049 188.831 360.114 164.148 342.82 159.592L337.053 158.23C405.144 129.401 483.51 181.962 482.659 256.001C482.659 314.25 435.265 361.644 377.016 361.644C318.768 361.644 271.374 314.25 271.374 256.001C271.374 233.671 265.957 212.593 256.354 193.998C233.804 150.279 188.172 120.319 135.692 120.319C60.8809 120.319 0.00897565 181.191 0.00897565 256.001C-1.1626 354.684 106.673 422.205 194.811 378.126L193.479 387.448C192.118 396.41 199.317 404.671 208.369 404.591C215.719 404.591 222.138 399.194 223.219 391.704L229.237 349.607C230.419 342.137 225.212 334.497 217.822 332.865L176.787 323.182C157.231 319.367 150.672 347.064 169.888 352.411L175.655 353.773C107.564 382.602 29.1983 330.041 30.0494 256.001C30.0494 197.753 77.4432 150.359 135.692 150.359C193.94 150.359 241.334 197.753 241.334 256.001C241.334 278.331 246.751 299.41 256.354 318.005C278.904 361.724 324.536 391.684 377.016 391.684C556.948 384.264 557.039 127.769 377.016 120.319Z" fill="black"/>
<path d="M323.911 247.978C315.61 247.978 308.891 254.707 308.891 262.999C308.891 271.29 315.61 278.019 323.911 278.019H330.169C330.998 280.591 332.039 283.09 333.283 285.489L328.837 289.925C322.97 295.793 322.97 305.306 328.837 311.173C331.771 314.107 335.617 315.569 339.462 315.569C343.307 315.569 347.152 314.107 350.086 311.173L354.522 306.727C356.921 307.972 359.42 309.013 361.992 309.842V316.1C361.992 324.401 368.721 331.12 377.012 331.12C385.303 331.12 392.033 324.401 392.033 316.1V309.842C394.605 309.013 397.104 307.972 399.503 306.727L403.939 311.173C406.872 314.107 410.718 315.569 414.563 315.569C418.408 315.569 422.253 314.107 425.187 311.173C431.055 305.306 431.055 295.793 425.187 289.925L420.741 285.489C421.985 283.09 423.027 280.591 423.855 278.019H430.114C438.415 278.019 445.134 271.29 445.134 262.999C445.134 254.707 438.415 247.978 430.114 247.978H423.855C423.027 245.406 421.985 242.907 420.741 240.508L425.187 236.072C431.055 230.204 431.055 220.692 425.187 214.824C419.319 208.956 409.806 208.956 403.939 214.824L399.503 219.27C397.104 218.026 394.605 216.984 392.033 216.156V209.897C392.033 201.596 385.303 194.877 377.012 194.877C368.721 194.877 361.992 201.596 361.992 209.897V216.156C359.42 216.984 356.921 218.026 354.522 219.27L350.086 214.824C344.218 208.956 334.705 208.956 328.837 214.824C322.97 220.692 322.97 230.204 328.837 236.072L333.283 240.508C332.039 242.907 330.998 245.406 330.169 247.978H323.911ZM377.012 247.978C385.303 247.978 392.033 254.707 392.033 262.999C392.033 271.29 385.303 278.019 377.012 278.019C368.721 278.019 361.992 271.29 361.992 262.999C361.992 254.707 368.721 247.978 377.012 247.978Z" fill="black"/>
</g>
<defs>
<clipPath id="clip0_2020_8523">
<rect width="512" height="512" fill="white"/>
</clipPath>
</defs>
</svg>
