<svg width="512" height="512" viewBox="0 0 512 512" fill="none" xmlns="http://www.w3.org/2000/svg">
<path d="M483.344 253.85H273.229C259.869 253.85 249 264.719 249 278.079V320.579H194.648C192.791 320.579 191.011 321.316 189.698 322.629C188.386 323.942 187.648 325.722 187.648 327.579C187.648 329.436 188.386 331.216 189.698 332.529C191.011 333.842 192.791 334.579 194.648 334.579H249V365.736H210.659L213.01 363.386C214.322 362.073 215.06 360.292 215.06 358.436C215.06 356.58 214.322 354.799 213.01 353.486C211.697 352.174 209.916 351.437 208.06 351.437C206.204 351.437 204.423 352.174 203.11 353.486L188.81 367.786C187.497 369.099 186.76 370.879 186.76 372.736C186.76 374.592 187.497 376.372 188.81 377.685L203.11 391.986C203.759 392.637 204.531 393.154 205.38 393.506C206.23 393.858 207.14 394.038 208.06 394.037C209.444 394.037 210.798 393.626 211.949 392.857C213.1 392.088 213.997 390.995 214.527 389.716C215.056 388.437 215.195 387.03 214.925 385.672C214.655 384.314 213.989 383.067 213.01 382.088L210.658 379.736H249V415.845C249 429.205 259.869 440.074 273.229 440.074H337.79C337.255 450.701 334.861 461.038 332.07 468.022H319.904C310.26 468.022 302.416 475.868 302.416 485.51C302.416 495.152 310.261 503 319.904 503H432.1C441.743 503 449.587 495.154 449.587 485.512C449.587 475.87 441.742 468.024 432.1 468.024H419.866C416.93 460.947 414.371 450.58 413.719 440.076H478.771C492.131 440.076 503 429.207 503 415.847V273.509C503 262.669 494.183 253.85 483.344 253.85ZM303.49 365.736H263V334.579H287.479L285.129 336.929C283.838 338.246 283.119 340.019 283.128 341.864C283.137 343.708 283.873 345.474 285.177 346.779C286.481 348.083 288.247 348.82 290.092 348.829C291.936 348.839 293.71 348.12 295.027 346.829L309.328 332.529C310.641 331.216 311.378 329.436 311.378 327.579C311.378 325.723 310.641 323.942 309.329 322.629L295.028 308.328C293.715 307.016 291.934 306.279 290.078 306.279C288.222 306.279 286.441 307.016 285.128 308.328C283.816 309.641 283.078 311.422 283.078 313.278C283.078 315.134 283.816 316.915 285.128 318.228L287.48 320.579H263V278.079C263 272.438 267.589 267.85 273.229 267.85H483.343C484.843 267.852 486.281 268.449 487.341 269.51C488.401 270.571 488.998 272.009 488.999 273.509V391.804H263V379.737H303.49C305.347 379.737 307.127 378.999 308.44 377.687C309.753 376.374 310.491 374.593 310.491 372.737C310.491 370.88 309.753 369.099 308.44 367.786C307.127 366.474 305.347 365.736 303.49 365.736ZM435.587 485.512C435.587 487.403 433.99 489 432.1 489H319.904C318.013 489 316.416 487.402 316.416 485.512C316.416 483.622 318.014 482.024 319.904 482.024H432.1C433.99 482.023 435.587 483.621 435.587 485.512ZM404.941 468.023H346.922C349.598 459.607 351.36 449.592 351.795 440.075H399.708C400.23 449.511 402.122 459.531 404.941 468.023ZM478.771 426.075H273.229C267.588 426.075 263 421.486 263 415.846V405.804H489V415.846C489 421.486 484.411 426.075 478.771 426.075ZM392.473 415.939C392.473 417.796 391.736 419.576 390.423 420.889C389.11 422.201 387.33 422.939 385.473 422.939H366.529C364.672 422.939 362.892 422.201 361.579 420.889C360.266 419.576 359.529 417.796 359.529 415.939C359.529 414.082 360.266 412.302 361.579 410.989C362.892 409.677 364.672 408.939 366.529 408.939H385.473C387.33 408.939 389.11 409.677 390.423 410.989C391.736 412.302 392.473 414.082 392.473 415.939ZM87.102 251.542C49.485 251.542 9 260.814 9 281.172V419.144C9 439.501 49.485 448.774 87.102 448.774C124.719 448.774 165.204 439.502 165.204 419.144V281.172C165.203 260.814 124.718 251.542 87.102 251.542ZM135.255 428.475C122.493 432.537 105.393 434.774 87.102 434.774C68.811 434.774 51.709 432.537 38.949 428.475C25.838 424.303 23 419.988 23 419.144V391.061C38.091 399.03 63.175 402.784 87.102 402.784C111.029 402.784 136.112 399.031 151.204 391.061V419.144C151.203 419.988 148.365 424.302 135.255 428.475ZM135.255 382.484C122.493 386.546 105.393 388.783 87.102 388.783C68.811 388.783 51.709 386.546 38.949 382.484C25.838 378.312 23 373.998 23 373.153V345.07C38.091 353.04 63.175 356.793 87.102 356.793C111.029 356.793 136.112 353.04 151.204 345.07V373.153C151.203 373.998 148.365 378.312 135.255 382.484ZM135.255 336.494C122.493 340.556 105.393 342.793 87.102 342.793C68.811 342.793 51.709 340.556 38.949 336.494C25.838 332.321 23 328.007 23 327.162V299.08C38.091 307.05 63.175 310.803 87.102 310.803C111.029 310.803 136.112 307.05 151.204 299.08V327.162C151.203 328.007 148.365 332.321 135.255 336.494ZM135.255 290.504C122.493 294.566 105.393 296.803 87.102 296.803C68.811 296.803 51.709 294.566 38.949 290.504C25.838 286.331 23 282.017 23 281.172C23 280.327 25.838 276.013 38.948 271.841C51.709 267.779 68.81 265.542 87.101 265.542C105.392 265.542 122.493 267.779 135.254 271.841C148.364 276.014 151.202 280.327 151.202 281.172C151.202 282.017 148.365 286.331 135.255 290.504ZM60.766 417.323C60.4569 419.154 59.4334 420.786 57.9206 421.862C56.4079 422.938 54.5296 423.37 52.699 423.061C46.932 422.089 41.555 420.871 36.717 419.438C35.8273 419.184 34.9968 418.757 34.2733 418.18C33.5498 417.604 32.9479 416.889 32.5021 416.079C32.0564 415.268 31.7758 414.377 31.6766 413.457C31.5773 412.538 31.6613 411.607 31.9238 410.72C32.1863 409.833 32.622 409.007 33.2058 408.289C33.7896 407.571 34.5098 406.977 35.3249 406.539C36.1399 406.101 37.0337 405.83 37.9544 405.74C38.8751 405.649 39.8046 405.743 40.689 406.014C44.99 407.286 49.813 408.377 55.027 409.256C56.8576 409.565 58.4905 410.589 59.5667 412.101C60.6429 413.614 61.0743 415.492 60.766 417.323ZM60.766 371.333C60.4569 373.164 59.4334 374.796 57.9206 375.872C56.4079 376.948 54.5296 377.38 52.699 377.071C46.932 376.099 41.555 374.881 36.717 373.448C35.8273 373.194 34.9968 372.767 34.2733 372.19C33.5498 371.614 32.9479 370.899 32.5021 370.089C32.0564 369.278 31.7758 368.387 31.6766 367.467C31.5773 366.548 31.6613 365.617 31.9238 364.73C32.1863 363.843 32.622 363.017 33.2058 362.299C33.7896 361.581 34.5098 360.987 35.3249 360.549C36.1399 360.111 37.0337 359.84 37.9544 359.75C38.8751 359.659 39.8046 359.753 40.689 360.024C44.99 361.296 49.813 362.387 55.027 363.266C56.8576 363.575 58.4905 364.599 59.5667 366.111C60.6429 367.624 61.0743 369.502 60.766 371.333ZM60.766 325.343C60.4569 327.174 59.4334 328.806 57.9206 329.882C56.4079 330.958 54.5296 331.39 52.699 331.081C46.932 330.109 41.555 328.891 36.717 327.458C35.8273 327.204 34.9968 326.777 34.2733 326.2C33.5498 325.624 32.9479 324.909 32.5021 324.099C32.0564 323.288 31.7758 322.397 31.6766 321.477C31.5773 320.558 31.6613 319.627 31.9238 318.74C32.1863 317.853 32.622 317.027 33.2058 316.309C33.7896 315.591 34.5098 314.997 35.3249 314.559C36.1399 314.121 37.0337 313.85 37.9544 313.759C38.8751 313.669 39.8046 313.763 40.689 314.034C44.99 315.306 49.813 316.397 55.027 317.276C56.8577 317.585 58.4908 318.608 59.567 320.121C60.6433 321.634 61.0746 323.512 60.766 325.343ZM151.337 106.908C151.337 86.03 164.482 67.736 183.889 60.743C185.086 47.477 190.801 35.179 200.284 25.67C211.004 14.92 225.271 9 240.459 9C269.014 9 292.944 30.469 296.739 58.108H311.863C338.771 58.108 360.663 80 360.663 106.908C360.663 133.816 338.771 155.708 311.863 155.708C310.006 155.708 308.226 154.97 306.913 153.658C305.6 152.345 304.863 150.565 304.863 148.708C304.863 146.851 305.6 145.071 306.913 143.758C308.226 142.446 310.006 141.708 311.863 141.708C331.051 141.708 346.663 126.097 346.663 106.908C346.663 87.719 331.052 72.108 311.863 72.108H290.259C288.419 72.1079 286.654 71.3836 285.344 70.0918C284.034 68.8 283.286 67.0445 283.26 65.205C282.938 41.933 263.738 23 240.459 23C229.019 23 218.271 27.459 210.196 35.556C202.106 43.668 197.652 54.482 197.653 66.004C197.653 67.571 197.128 69.0928 196.16 70.3257C195.193 71.5586 193.84 72.4313 192.318 72.804C176.431 76.694 165.337 90.718 165.337 106.908C165.337 126.096 180.948 141.708 200.137 141.708C201.994 141.708 203.774 142.446 205.087 143.758C206.4 145.071 207.137 146.851 207.137 148.708C207.137 150.565 206.4 152.345 205.087 153.658C203.774 154.97 201.994 155.708 200.137 155.708C173.229 155.708 151.337 133.816 151.337 106.908ZM256 112.142C254.143 112.142 252.363 112.879 251.05 114.192C249.737 115.505 249 117.285 249 119.142V198.803C240.522 201.72 234.405 209.756 234.405 219.211C234.405 231.119 244.093 240.807 256 240.807C267.908 240.807 277.596 231.119 277.596 219.211C277.596 209.755 271.478 201.719 263 198.802V119.141C263 117.285 262.262 115.504 260.949 114.192C259.637 112.879 257.856 112.142 256 112.142ZM256 226.807C251.812 226.807 248.405 223.4 248.405 219.211C248.405 215.022 251.812 211.615 256 211.615C260.188 211.615 263.596 215.022 263.596 219.211C263.596 223.4 260.188 226.807 256 226.807ZM291.489 112.142C289.632 112.142 287.852 112.879 286.539 114.192C285.226 115.505 284.489 117.285 284.489 119.142V186.663C284.489 188.52 285.226 190.3 286.539 191.613C287.852 192.926 289.632 193.663 291.489 193.663H310.065C312.982 202.14 321.018 208.258 330.473 208.258C342.381 208.258 352.069 198.57 352.069 186.663C352.069 174.755 342.381 165.067 330.473 165.067C321.017 165.067 312.981 171.185 310.064 179.663H298.488V119.142C298.488 118.223 298.307 117.312 297.956 116.463C297.604 115.614 297.089 114.842 296.439 114.192C295.789 113.542 295.017 113.026 294.168 112.675C293.319 112.323 292.408 112.142 291.489 112.142ZM330.474 179.066C334.662 179.066 338.07 182.473 338.07 186.662C338.07 190.85 334.663 194.257 330.474 194.257C326.285 194.257 322.878 190.85 322.878 186.662C322.878 182.474 326.285 179.066 330.474 179.066ZM201.935 193.662H220.511C222.368 193.662 224.148 192.924 225.461 191.612C226.774 190.299 227.511 188.519 227.511 186.662V119.141C227.511 118.222 227.33 117.311 226.978 116.462C226.626 115.613 226.111 114.841 225.461 114.191C224.811 113.541 224.039 113.026 223.19 112.674C222.341 112.322 221.43 112.141 220.511 112.141C219.592 112.141 218.681 112.322 217.832 112.674C216.983 113.026 216.211 113.541 215.561 114.191C214.911 114.841 214.396 115.613 214.044 116.462C213.692 117.311 213.511 118.222 213.511 119.141V179.662H201.935C199.018 171.184 190.982 165.066 181.526 165.066C169.618 165.066 159.93 174.754 159.93 186.662C159.93 198.569 169.618 208.257 181.526 208.257C190.982 208.257 199.018 202.139 201.935 193.662ZM181.526 194.257C177.338 194.257 173.93 190.85 173.93 186.662C173.93 182.474 177.337 179.066 181.526 179.066C185.715 179.066 189.122 182.473 189.122 186.662C189.122 190.85 185.715 194.257 181.526 194.257Z" fill="black" stroke="black" stroke-width="3"/>
</svg>
