<svg width="512" height="512" viewBox="0 0 512 512" fill="none" xmlns="http://www.w3.org/2000/svg">
<path fill-rule="evenodd" clip-rule="evenodd" d="M62.8429 98.3639L201.163 236.744C231.331 266.854 280.645 266.88 310.838 236.744L449.158 98.3639C449.485 98.0388 449.737 97.6457 449.895 97.2124C450.053 96.7792 450.114 96.3165 450.073 95.8571C450.032 95.3977 449.891 94.9529 449.659 94.5542C449.428 94.1554 449.111 93.8126 448.732 93.5499C434.624 83.7109 417.459 77.8779 398.969 77.8779H113.033C94.5419 77.8779 77.3769 83.7119 63.2689 93.5499C62.8898 93.8126 62.5732 94.1554 62.3414 94.5542C62.1096 94.9529 61.9684 95.3977 61.9277 95.8571C61.8871 96.3165 61.948 96.7792 62.1062 97.2124C62.2643 97.6457 62.5159 98.0388 62.8429 98.3639ZM25.8789 165.031C25.8677 150.971 29.2847 137.12 35.8339 124.678C36.0626 124.239 36.3915 123.861 36.7939 123.573C37.1963 123.286 37.661 123.097 38.15 123.023C38.639 122.949 39.1387 122.991 39.6083 123.146C40.078 123.301 40.5044 123.565 40.8529 123.916L177.422 260.485C220.669 303.795 291.307 303.82 334.58 260.485L471.149 123.916C471.497 123.565 471.924 123.301 472.394 123.146C472.863 122.991 473.363 122.949 473.852 123.023C474.341 123.097 474.806 123.286 475.208 123.573C475.61 123.861 475.939 124.239 476.168 124.678C482.717 137.12 486.134 150.971 486.123 165.031V346.968C486.123 395.061 447.002 434.122 398.969 434.122H113.033C65.0009 434.122 25.8789 395.061 25.8789 346.968V165.031Z" fill="black"/>
</svg>
