<svg width="512" height="512" viewBox="0 0 512 512" fill="none" xmlns="http://www.w3.org/2000/svg">
<g clip-path="url(#clip0_2004_8410)">
<path d="M256 512C397.385 512 512 397.385 512 256C512 114.615 397.385 0 256 0C114.615 0 0 114.615 0 256C0 397.385 114.615 512 256 512Z" fill="black"/>
<path fill-rule="evenodd" clip-rule="evenodd" d="M256 64.5C147.575 64.5 59.6523 152.404 59.6523 260.848C59.6523 347.599 115.911 421.198 193.927 447.162C203.739 448.978 207.342 442.901 207.342 437.715C207.342 433.035 207.161 417.565 207.075 401.159C152.451 413.038 140.925 377.992 140.925 377.992C131.993 355.298 119.124 349.262 119.124 349.262C101.308 337.076 120.467 337.326 120.467 337.326C140.182 338.71 150.565 357.562 150.565 357.562C168.076 387.577 196.498 378.9 207.704 373.883C209.466 361.195 214.553 352.529 220.17 347.627C176.558 342.664 130.71 325.826 130.71 250.591C130.71 229.155 138.382 211.639 150.943 197.889C148.904 192.942 142.183 172.973 152.845 145.926C152.845 145.926 169.334 140.652 206.853 166.055C222.517 161.704 239.314 159.522 255.999 159.446C272.685 159.522 289.495 161.704 305.187 166.055C342.664 140.651 359.128 145.926 359.128 145.926C369.816 172.973 363.094 192.942 361.055 197.889C373.645 211.639 381.262 229.156 381.262 250.591C381.262 326.007 335.329 342.61 291.606 347.471C298.649 353.565 304.923 365.513 304.923 383.831C304.923 410.103 304.698 431.247 304.698 437.715C304.698 442.941 308.232 449.064 318.183 447.136C396.158 421.143 452.347 347.57 452.347 260.847C452.348 152.404 364.438 64.5 256 64.5Z" fill="white"/>
<path d="M134.021 346.411C133.589 347.389 132.052 347.681 130.655 347.011C129.229 346.37 128.432 345.039 128.893 344.061C129.315 343.058 130.852 342.778 132.275 343.448C133.7 344.09 134.513 345.434 134.021 346.411ZM141.975 355.283C141.038 356.15 139.206 355.747 137.965 354.375C136.679 353.007 136.441 351.174 137.39 350.295C138.355 349.428 140.13 349.835 141.416 351.203C142.702 352.587 142.953 354.404 141.975 355.283ZM149.716 366.59C148.512 367.428 146.544 366.644 145.328 364.898C144.124 363.152 144.124 361.056 145.356 360.218C146.572 359.38 148.512 360.136 149.745 361.866C150.945 363.64 150.945 365.736 149.716 366.59ZM160.321 377.516C159.244 378.703 156.952 378.383 155.275 376.763C153.557 375.182 153.081 372.934 154.158 371.746C155.25 370.558 157.555 370.892 159.245 372.498C160.95 374.08 161.468 376.341 160.321 377.516ZM174.953 383.86C174.477 385.397 172.27 386.095 170.047 385.442C167.824 384.769 166.373 382.968 166.821 381.416C167.281 379.866 169.501 379.139 171.739 379.838C173.959 380.507 175.413 382.295 174.953 383.86ZM191.023 385.035C191.077 386.654 189.191 387.997 186.857 388.026C184.51 388.08 182.609 386.769 182.583 385.174C182.583 383.539 184.428 382.212 186.774 382.17C189.108 382.126 191.023 383.428 191.023 385.035ZM205.975 382.492C206.254 384.07 204.632 385.693 202.314 386.125C200.034 386.544 197.926 385.566 197.634 384.001C197.351 382.382 199.002 380.759 201.279 380.34C203.6 379.936 205.68 380.885 205.975 382.492Z" fill="white"/>
</g>
<defs>
<clipPath id="clip0_2004_8410">
<rect width="512" height="512" fill="white"/>
</clipPath>
</defs>
</svg>
