<svg width="512" height="512" viewBox="0 0 512 512" fill="none" xmlns="http://www.w3.org/2000/svg">
<g clip-path="url(#clip0_2007_8422)">
<path d="M460.92 321.32C456.21 318.6 451.25 316.81 446.21 315.91C446.24 315.65 446.24 315.43 446.24 315.17V196.83C446.24 196.57 446.24 196.32 446.21 196.09C451.26 195.15 456.22 193.4 460.92 190.68C482.86 178 490.37 149.94 477.7 128C465.06 106.06 436.99 98.5202 415.05 111.19C410.476 113.825 406.39 117.229 402.97 121.25C402.77 121.11 402.57 121 402.37 120.85L299.88 61.7002C299.65 61.5602 299.43 61.4402 299.2 61.3602C300.96 56.5102 301.89 51.3002 301.89 45.8802C301.89 20.5402 281.34 -0.00976562 256 -0.00976562C230.66 -0.00976562 210.14 20.5402 210.14 45.8802C210.14 51.2902 211.08 56.5102 212.8 61.3602C212.57 61.4402 212.35 61.5602 212.15 61.7002L109.65 120.86C109.45 121 109.22 121.12 109.05 121.26C105.626 117.243 101.541 113.841 96.9701 111.2C75.0301 98.5302 46.9701 106.07 34.3001 128.01C21.6301 149.95 29.1401 178.01 51.1101 190.68C55.7901 193.4 60.7801 195.16 65.8201 196.09C65.7901 196.32 65.7901 196.57 65.7901 196.83V315.18C65.7901 315.44 65.7901 315.66 65.8201 315.92C60.7701 316.83 55.7901 318.61 51.1101 321.33C29.1401 334 21.6301 362.06 34.3001 384C46.9701 405.94 75.0301 413.45 96.9701 400.78C101.68 398.09 105.7 394.66 109.05 390.75C109.22 390.89 109.45 391.01 109.65 391.15L212.15 450.31C212.35 450.45 212.57 450.56 212.8 450.65C211.03 455.619 210.13 460.856 210.14 466.13C210.14 491.47 230.66 512.02 256 512.02C281.34 512.02 301.89 491.47 301.89 466.13C301.89 460.69 300.95 455.5 299.2 450.65C299.43 450.57 299.65 450.45 299.88 450.31L402.38 391.15C402.58 391.01 402.78 390.9 402.98 390.75C406.3 394.66 410.35 398.09 415.06 400.78C437 413.45 465.06 405.94 477.71 384C490.37 362.06 482.86 334 460.92 321.32ZM109.02 331.39C102.05 323.11 92.4901 317.78 82.2601 315.91C82.2901 315.68 82.2901 315.43 82.2901 315.17V196.83C82.2901 196.57 82.2901 196.32 82.2601 196.06C92.4901 194.22 102.05 188.89 109.02 180.61C109.22 180.75 109.42 180.89 109.64 181.01L212.14 240.2C212.34 240.31 212.56 240.43 212.79 240.54C211.06 245.36 210.13 250.57 210.13 255.99C210.13 261.43 211.07 266.65 212.79 271.47C212.56 271.58 212.34 271.7 212.14 271.81L109.64 331C109.42 331.1 109.22 331.25 109.02 331.39ZM247.78 420.96C237.12 422.89 227.74 428.5 221.02 436.44C220.82 436.3 220.62 436.16 220.4 436.04L117.9 376.88C117.7 376.74 117.47 376.63 117.25 376.51C120.74 366.73 120.91 355.79 117.25 345.58C117.48 345.47 117.7 345.35 117.9 345.24L220.4 286.05C220.63 285.94 220.83 285.79 221.02 285.65C227.74 293.59 237.12 299.2 247.78 301.13C247.75 301.38 247.75 301.61 247.75 301.87V420.22C247.75 420.48 247.75 420.74 247.78 420.96ZM247.81 210.86C237.15 212.79 227.77 218.4 221.02 226.34C220.82 226.2 220.62 226.06 220.4 225.94L117.9 166.75C117.7 166.64 117.47 166.5 117.25 166.41C120.91 156.2 120.74 145.26 117.25 135.48C117.48 135.37 117.7 135.25 117.9 135.11L220.4 75.9502C220.63 75.8102 220.83 75.6902 221.02 75.5502C227.77 83.4902 237.15 89.1002 247.81 91.0302C247.81 91.2602 247.78 91.5102 247.78 91.7402V210.12C247.78 210.35 247.81 210.6 247.81 210.86ZM264.19 91.0402C274.88 89.1102 284.26 83.5002 291.01 75.5602C291.21 75.7002 291.41 75.8102 291.63 75.9602L394.1 135.12C394.33 135.26 394.55 135.38 394.78 135.49C391.26 145.27 391.09 156.21 394.78 166.42C394.55 166.53 394.35 166.65 394.16 166.76L291.66 225.95C291.43 226.06 291.21 226.2 291.01 226.35C284.26 218.41 274.88 212.8 264.19 210.87C264.22 210.62 264.25 210.36 264.25 210.13V91.7502C264.25 91.5202 264.22 91.2602 264.19 91.0402ZM394.78 376.51C394.55 376.62 394.33 376.74 394.1 376.88L291.63 436.04C291.4 436.15 291.2 436.29 291.01 436.44C284.26 428.5 274.88 422.89 264.22 420.96C264.25 420.73 264.28 420.48 264.28 420.22V301.88C264.28 301.63 264.25 301.4 264.22 301.14C274.678 299.25 284.15 293.777 291.01 285.66C291.21 285.8 291.43 285.94 291.66 286.06L394.16 345.25C394.36 345.36 394.56 345.48 394.78 345.59C391.1 355.77 391.27 366.71 394.78 376.51ZM429.76 315.91C419.53 317.78 409.97 323.11 402.97 331.39C402.77 331.25 402.54 331.11 402.35 330.99L299.85 271.8C299.62 271.69 299.43 271.57 299.2 271.49C300.981 266.513 301.891 261.266 301.89 255.98C301.89 250.57 300.93 245.35 299.2 240.5C299.43 240.42 299.63 240.3 299.85 240.19L402.35 181C402.55 180.89 402.78 180.74 402.97 180.6C409.97 188.88 419.52 194.18 429.76 196.05C429.73 196.3 429.7 196.56 429.7 196.82V315.17C429.71 315.43 429.74 315.68 429.76 315.91Z" fill="black"/>
</g>
<defs>
<clipPath id="clip0_2007_8422">
<rect width="512" height="512" fill="white"/>
</clipPath>
</defs>
</svg>
