<svg width="512" height="512" viewBox="0 0 512 512" fill="none" xmlns="http://www.w3.org/2000/svg">
<path d="M67.04 337.44V176C67.04 125.44 108.16 84.3198 158.72 84.3198H407.68C402.925 73.8789 395.27 65.0249 385.625 58.8125C375.98 52.6001 364.752 49.2911 353.28 49.2798H91.68C75.8519 49.2798 60.672 55.5675 49.4799 66.7597C38.2877 77.9518 32 93.1317 32 108.96V283.2C32 307.2 46.4 328 67.04 337.44Z" fill="black"/>
<path d="M420.32 116.32H158.72C142.892 116.32 127.712 122.608 116.52 133.8C105.328 144.992 99.04 160.172 99.04 176V350.24C99.04 383.04 125.76 409.92 158.72 409.92H274.88C301.44 409.92 327.36 418.88 348.16 435.36L374.08 455.84C379.84 460.32 386.88 462.72 393.92 462.72C398.56 462.72 403.36 461.6 407.84 459.52C419.04 454.08 425.92 443.04 425.92 430.72V409.6C440.706 408.214 454.443 401.361 464.445 390.383C474.447 379.405 479.993 365.091 480 350.24V176C480 143.2 453.28 116.32 420.32 116.32ZM209.28 279.2C200.48 279.2 193.28 272 193.28 263.2C193.28 254.24 200.32 247.2 209.12 247.2H209.28C218.24 247.2 225.28 254.24 225.28 263.2C225.28 272 218.24 279.2 209.28 279.2ZM289.92 279.2C280.96 279.2 273.76 272 273.76 263.2C273.76 254.24 280.8 247.2 289.76 247.2H289.92C298.72 247.2 305.92 254.24 305.92 263.2C305.92 272 298.72 279.2 289.92 279.2ZM370.4 279.2C361.6 279.2 354.24 272 354.24 263.2C354.24 254.24 361.44 247.2 370.24 247.2H370.4C379.2 247.2 386.4 254.24 386.4 263.2C386.4 272 379.2 279.2 370.4 279.2Z" fill="black"/>
</svg>
