<svg width="512" height="512" viewBox="0 0 512 512" fill="none" xmlns="http://www.w3.org/2000/svg">
<path d="M149.333 384C142.933 384 138.667 381.867 134.4 377.6C125.867 369.067 125.867 356.267 134.4 347.733L347.733 134.4C356.267 125.867 369.067 125.867 377.6 134.4C386.133 142.933 386.133 155.733 377.6 164.267L164.267 377.6C160 381.867 155.733 384 149.333 384Z" fill="black"/>
<path d="M362.667 362.667C349.867 362.667 341.333 354.133 341.333 341.333V170.667H170.667C157.867 170.667 149.333 162.133 149.333 149.333C149.333 136.533 157.867 128 170.667 128H362.667C375.467 128 384 136.533 384 149.333V341.333C384 354.133 375.467 362.667 362.667 362.667Z" fill="black"/>
</svg>
